<?xml version="1.0" encoding="UTF-8" standalone="no"?>
<!DOCTYPE svg PUBLIC "-//W3C//DTD SVG 20010904//EN"
              "http://www.w3.org/TR/2001/REC-SVG-20010904/DTD/svg10.dtd">

<svg xmlns="http://www.w3.org/2000/svg"
     viewBox="0 0 48 48">
  <defs>
    <linearGradient id="iconfill" x1="0%" x2="0%" y1="0%" y2="100%">
        <stop offset="0%" style="stop-color:rgb(40,40,40); stop-opacity:1" />
        <stop offset="65%" style="stop-color:rgb(40,40,40); stop-opacity:1" />
        <stop offset="100%" style="stop-color:rgb(80,80,80); stop-opacity:1" />
    </linearGradient>
  </defs>
  <path id="men"
        stroke="white" stroke-width="1"
        fill="url(#iconfill)"
        d="M 1.00,38.44
           C 1.00,38.44 6.47,38.44 6.47,38.44
             7.73,37.38 16.00,35.63 16.65,35.25
             13.65,34.19 15.00,35.25 14.00,34.19
             13.75,33.66 13.50,32.06 13.50,31.53
             14.00,30.47 15.50,30.47 15.50,26.75
             16.00,27.28 16.00,24.09 15.50,24.62
             15.50,22.50 14.00,19.84 11.00,19.84
             8.00,19.84 6.50,21.97 6.50,24.62
             6.00,24.09 6.00,27.28 6.50,26.75
             6.50,30.47 8.00,30.47 8.50,31.53
             8.50,32.06 8.25,33.66 8.00,34.19
             7.00,35.25 6.47,34.81 3.50,35.78
             0.50,36.84 1.00,37.38 1.00,38.44 Z
           M 47.00,38.44
           C 47.00,38.44 41.53,38.44 41.53,38.44
             40.27,37.38 32.00,35.63 31.35,35.25
             34.35,34.19 33.00,35.25 34.00,34.19
             34.25,33.66 34.50,32.06 34.50,31.53
             34.00,30.47 32.50,30.47 32.50,26.75
             32.00,27.28 32.00,24.09 32.50,24.62
             32.50,22.50 34.00,19.84 37.00,19.84
             40.00,19.84 41.50,21.97 41.50,24.62
             42.00,24.09 42.00,27.28 41.50,26.75
             41.50,30.47 40.00,30.47 39.50,31.53
             39.50,32.06 39.75,33.66 40.00,34.19
             41.00,35.25 41.53,34.81 44.50,35.78
             47.50,36.84 47.00,37.38 47.00,38.44 Z
           M 44.00,42.69
           C 44.00,42.69 4.00,42.69 4.00,42.69
             4.00,40.56 3.00,39.50 9.00,37.38
             15.00,35.25 16.00,36.31 18.00,34.19
             18.50,33.12 19.00,29.94 19.00,28.88
             18.00,26.75 15.00,26.75 15.00,19.31
             14.00,20.38 14.00,14.00 15.00,15.06
             15.00,10.81 18.00,5.50 24.00,5.50
             30.00,5.50 33.00,9.75 33.00,15.06
             34.00,14.00 34.00,20.38 33.00,19.31
             33.00,26.75 30.00,26.75 29.00,28.88
             29.00,29.94 29.50,33.12 30.00,34.19
             32.00,36.31 33.07,35.43 39.00,37.38
             45.00,39.50 44.00,40.56 44.00,42.69 Z" />
</svg>
