<?xml version="1.0" encoding="UTF-8" standalone="no"?>
<!DOCTYPE svg PUBLIC "-//W3C//DTD SVG 20010904//EN"
              "http://www.w3.org/TR/2001/REC-SVG-20010904/DTD/svg10.dtd">

<svg xmlns="http://www.w3.org/2000/svg"
     width="14.2222in" height="14.2222in"
     viewBox="0 0 1024 1024">
  <defs>
    <linearGradient id="iconfill" x1="0%" x2="0%" y1="0%" y2="100%">
        <stop offset="0%" style="stop-color:rgb(0,0,0); stop-opacity:1" />
        <stop offset="65%" style="stop-color:rgb(0,0,0); stop-opacity:1" />
        <stop offset="100%" style="stop-color:rgb(70,70,70); stop-opacity:1" />
    </linearGradient>
  </defs>
  <path id="men"
        fill="url(#iconfill)"
        d="M 19.73,647.07
           C -21.92,830.19 -44.57,931.38 -53.01,971.36
             -60.65,1005.37 -80.48,1015.23 -95.21,1015.53
             -127.56,1016.19 -144.64,985.93 -144.24,968.48
             -143.84,951.04 -116.14,811.35 -63.86,501.86
             -61.74,487.85 -60.09,440.03 -62.22,394.51
             -63.28,370.00 -93.38,348.94 -116.47,349.26
             -248.59,347.66 -222.86,346.05 -272.26,344.76
             -321.66,343.48 -317.86,265.41 -272.26,265.09
             -226.66,264.77 -158.98,265.14 45.45,263.49
             394.15,261.24 635.58,261.24 984.27,263.49
             1188.71,265.14 1256.39,264.77 1301.99,265.09
             1347.59,265.41 1351.38,343.48 1301.99,344.76
             1252.59,346.05 1278.31,347.66 1146.20,349.26
             1123.11,348.94 1093.01,370.00 1091.94,394.51
             1089.82,440.03 1091.47,487.85 1093.59,501.86
             1145.87,811.35 1173.57,951.04 1173.97,968.48
             1174.37,985.93 1157.29,1016.19 1124.94,1015.53
             1110.21,1015.23 1090.37,1005.37 1082.74,971.36
             1074.30,931.38 1051.65,830.19 1010.00,647.07
             1007.07,633.89 986.90,623.61 984.27,623.61
             973.19,623.74 961.48,633.89 958.55,647.07
             916.90,830.19 894.25,931.38 885.81,971.36
             878.17,1005.37 858.34,1015.23 843.61,1015.53
             811.26,1016.19 794.18,985.93 794.58,968.48
             794.98,951.04 822.68,811.35 874.96,501.86
             877.08,487.85 878.73,440.03 876.60,394.51
             875.54,370.00 845.44,348.94 822.35,349.26
             690.24,347.66 808.90,347.66 676.79,349.26
             653.70,348.94 623.60,370.00 622.53,394.51
             620.41,440.03 622.05,487.85 624.18,501.86
             676.46,811.35 704.16,951.04 704.56,968.48
             704.96,985.93 687.88,1016.19 655.53,1015.53
             640.80,1015.23 620.96,1005.37 613.33,971.36
             604.89,931.38 582.24,830.19 540.58,647.07
             537.66,633.89 517.49,623.61 514.86,623.61
             503.78,623.74 492.07,633.89 489.14,647.07
             447.49,830.19 424.84,931.38 416.40,971.36
             408.76,1005.37 388.93,1015.23 374.20,1015.53
             341.85,1016.19 324.77,985.93 325.17,968.48
             325.57,951.04 353.27,811.35 405.55,501.86
             407.67,487.85 409.32,440.03 407.19,394.51
             406.13,370.00 376.03,348.94 352.94,349.26
             220.82,347.66 339.49,347.66 207.38,349.26
             184.29,348.94 154.19,370.00 153.12,394.51
             151.00,440.03 152.64,487.85 154.77,501.86
             207.05,811.35 234.74,951.04 235.15,968.48
             235.55,985.93 218.47,1016.19 186.12,1015.53
             171.39,1015.23 151.55,1005.37 143.92,971.36
             135.48,931.38 112.83,830.19 71.17,647.07
             68.25,633.89 56.54,623.74 45.45,623.61
             42.82,623.61 22.66,633.89 19.73,647.07 Z
           M 45.45,8.09
           C -81.49,7.70 -88.08,210.88 45.45,210.48
             178.99,210.08 172.39,8.48 45.45,8.09 Z
           M 984.27,263.49M 984.27,8.09
           C 852.55,8.48 854.43,210.08 984.27,210.48
             1114.12,210.88 1116.00,7.70 984.27,8.09 Z
           M 514.86,8.09
           C 387.18,7.54 376.82,210.08 514.86,210.48
             652.91,210.88 642.55,8.64 514.86,8.09 Z" />
</svg>
