<?xml version="1.0" encoding="UTF-8" standalone="no"?>
<!DOCTYPE svg PUBLIC "-//W3C//DTD SVG 20010904//EN"
              "http://www.w3.org/TR/2001/REC-SVG-20010904/DTD/svg10.dtd">

<svg xmlns="http://www.w3.org/2000/svg"
     width="14.2222in" height="14.2222in"
     viewBox="0 0 1024 1024">
  <defs>
    <linearGradient id="iconfill" x1="0%" x2="0%" y1="0%" y2="100%">
        <stop offset="0%" style="stop-color:rgb(40,40,40); stop-opacity:1" />
        <stop offset="65%" style="stop-color:rgb(40,40,40); stop-opacity:1" />
        <stop offset="100%" style="stop-color:rgb(80,80,80); stop-opacity:1" />
    </linearGradient>
  </defs>
  <path id="note"
        fill="url(#iconfill)"
        d="M 983.99,7.85
           C 982.89,48.69 980.23,557.80 975.83,691.35
             970.32,758.68 909.77,881.20 751.23,885.61
             691.78,885.61 614.71,856.92 614.71,765.30
             614.71,673.69 688.48,582.08 808.48,576.56
             822.80,575.46 883.35,580.98 930.69,615.19
             931.79,558.90 932.69,269.17 934.44,180.04
             909.57,186.39 389.47,311.39 388.37,310.28
             387.27,351.12 385.06,693.29 380.66,826.84
             375.16,894.17 314.60,1016.69 156.07,1021.10
             96.61,1021.10 19.55,992.41 19.55,900.80
             19.55,809.18 93.31,717.57 213.32,712.05
             227.63,710.95 288.18,716.47 335.52,750.68
             336.62,694.39 343.23,255.10 344.33,164.59
             345.43,166.79 985.09,8.96 983.99,7.85 Z" />
</svg>
