<?xml version="1.0" encoding="UTF-8" standalone="no"?>
<!DOCTYPE svg PUBLIC "-//W3C//DTD SVG 20010904//EN"
              "http://www.w3.org/TR/2001/REC-SVG-20010904/DTD/svg10.dtd">

<svg xmlns="http://www.w3.org/2000/svg"
     width="14.2222in" height="14.2222in"
     viewBox="0 0 48 48">
  <defs>
    <linearGradient id="iconfill" x1="0%" x2="0%" y1="0%" y2="100%">
        <stop offset="0%" style="stop-color:rgb(40,40,40); stop-opacity:1" />
        <stop offset="65%" style="stop-color:rgb(40,40,40); stop-opacity:1" />
        <stop offset="100%" style="stop-color:rgb(80,80,80); stop-opacity:1" />
    </linearGradient>
  </defs>
  <path id="note"
        stroke="white"
        stroke-width="1"
        fill="url(#iconfill)"
        d="M 45.39,4.33
           C 45.34,6.17 45.16,26.13 44.96,32.14
             44.71,35.17 41.99,40.69 34.85,40.89
             32.17,40.89 28.70,39.60 28.70,35.47
             28.70,31.35 32.02,27.22 37.42,26.97
             38.07,26.92 39.87,26.46 42.00,28.00
             42.05,25.46 42.05,11.99 42.05,11.99
             42.05,11.99 19.26,18.15 19.21,18.10
             19.21,18.10 19.35,32.83 19.15,38.84
             18.90,41.87 15.18,46.79 8.04,46.99
             5.36,46.99 1.89,45.70 1.89,41.57
             1.89,37.45 5.21,33.32 10.62,33.07
             11.26,33.02 13.99,33.27 16.12,34.81
             16.17,32.28 16.53,15.47 16.58,11.39
             16.63,11.49 45.44,4.38 45.39,4.33 Z" />
</svg>
