<?xml version="1.0" encoding="UTF-8" standalone="no"?>
<!DOCTYPE svg PUBLIC "-//W3C//DTD SVG 20010904//EN"
              "http://www.w3.org/TR/2001/REC-SVG-20010904/DTD/svg10.dtd">

<svg xmlns="http://www.w3.org/2000/svg"
     width="14.2222in" height="14.2222in"
     viewBox="0 0 1024 1024">
  <defs>
    <linearGradient id="iconfill" x1="0%" x2="0%" y1="0%" y2="100%">
        <stop offset="0%" style="stop-color:rgb(40,40,40); stop-opacity:1" />
        <stop offset="65%" style="stop-color:rgb(40,40,40); stop-opacity:1" />
        <stop offset="100%" style="stop-color:rgb(80,80,80); stop-opacity:1" />
    </linearGradient>
  </defs>
  <path id="speaker-on"
        fill="url(#iconfill)"
        d="M 0.00,304.00
           C 0.00,304.00 112.00,304.00 112.00,304.00
             112.00,304.00 112.00,688.00 112.00,688.00
             112.00,688.00 0.00,688.00 0.00,688.00
             0.00,688.00 0.00,304.00 0.00,304.00 Z
           M 176.00,304.00
           C 176.00,304.00 420.00,0.00 420.00,0.00
             420.00,0.00 420.00,1024.00 420.00,1024.00
             420.00,1024.00 176.00,688.00 176.00,688.00
             176.00,688.00 176.00,304.00 176.00,304.00 Z
           M 512.00,224.00
           C 784.00,336.00 784.00,688.00 512.00,800.00
             512.00,800.00 464.00,672.00 464.00,672.00
             608.00,576.00 608.00,448.00 464.00,352.00
             464.00,352.00 512.00,224.00 512.00,224.00 Z
           M 576.00,128.00
           C 576.00,128.00 640.00,16.00 640.00,16.00
             1152.00,160.00 1152.00,864.00 640.00,1008.00
             640.00,1008.00 576.00,896.00 576.00,896.00
             1008.00,816.00 1008.00,208.00 576.00,128.00 Z" />
</svg>
