<?xml version="1.0" encoding="UTF-8" standalone="no"?>
<!-- Created with Inkscape (http://www.inkscape.org/) -->

<svg
   xmlns:dc="http://purl.org/dc/elements/1.1/"
   xmlns:cc="http://creativecommons.org/ns#"
   xmlns:rdf="http://www.w3.org/1999/02/22-rdf-syntax-ns#"
   xmlns:svg="http://www.w3.org/2000/svg"
   xmlns="http://www.w3.org/2000/svg"
   version="1.1"
   width="1052.3625"
   height="744.09497"
   id="svg3023"
   xml:space="preserve"><metadata
     id="metadata3029"><rdf:RDF><cc:Work
         rdf:about=""><dc:format>image/svg+xml</dc:format><dc:type
           rdf:resource="http://purl.org/dc/dcmitype/StillImage" /><dc:title></dc:title></cc:Work></rdf:RDF></metadata><defs
     id="defs3027"><linearGradient
       x1="0"
       y1="0"
       x2="1"
       y2="0"
       id="linearGradient3045"
       gradientUnits="userSpaceOnUse"
       gradientTransform="matrix(0,614.26172,-614.26172,0,420.37354,-11.173828)"
       spreadMethod="pad"><stop
         id="stop3047"
         style="stop-color:#afd144;stop-opacity:1"
         offset="0" /><stop
         id="stop3049"
         style="stop-color:#82c15e;stop-opacity:1"
         offset="0.325836" /><stop
         id="stop3051"
         style="stop-color:#5ecaf4;stop-opacity:1"
         offset="0.94943202" /><stop
         id="stop3053"
         style="stop-color:#5ecaf4;stop-opacity:1"
         offset="1" /></linearGradient><clipPath
       id="clipPath3061"><path
         d="m 0,595.276 841.89,0 L 841.89,0 0,0 0,595.276 z"
         id="path3063" /></clipPath><clipPath
       id="clipPath3820"><rect
         width="205.60669"
         height="163.74107"
         x="101.53603"
         y="-440.54407"
         transform="scale(1,-1)"
         id="rect3822"
         style="fill:#000000;fill-opacity:1;stroke:none" /></clipPath><clipPath
       id="clipPath3826"><rect
         width="203.76178"
         height="184.08823"
         x="-62.482121"
         y="-225.0106"
         transform="scale(1,-1)"
         id="rect3828"
         style="fill:#000000;fill-opacity:1;stroke:none" /></clipPath><clipPath
       id="clipPath3830"><rect
         width="184.20869"
         height="329.34283"
         x="-16.342449"
         y="-234.94289"
         transform="scale(1,-1)"
         id="rect3832"
         style="fill:#000000;fill-opacity:1;stroke:none" /></clipPath></defs><g
     transform="matrix(1.25,0,0,-1.25,0,744.095)"
     id="g3031"><g
       clip-path="url(#clipPath3061)"
       id="g3059"
       style="display:inline"><rect
         width="797.6048"
         height="62.687019"
         x="12.106917"
         y="-573.27435"
         transform="scale(1,-1)"
         id="rect3309"
         style="fill:#87ceeb;fill-opacity:1;stroke:none" /><path
         d="m 286.99708,580.84147 11.22457,0 -83.38259,-72.78157 -73.12012,0 z"
         id="rect3317"
         style="fill:#ff0000;fill-opacity:1;stroke:none" /><path
         d="m 156.58147,585.65688 19.41721,0 80.05862,-80.86868 -83.94207,0 z"
         id="rect3311"
         style="fill:#ffff00;fill-opacity:1;stroke:none" /><rect
         width="691"
         height="198"
         x="1"
         y="-297.90503"
         transform="matrix(0.8,0,0,-0.8,0,595.276)"
         id="rect3248"
         style="fill:#ffffff;fill-opacity:1;stroke:#ffffff;stroke-width:1;stroke-linecap:round;stroke-linejoin:round;stroke-miterlimit:4;stroke-opacity:1;stroke-dasharray:2, 4;stroke-dashoffset:0" /><rect
         width="458"
         height="175"
         x="19"
         y="-339.90503"
         transform="matrix(0.8,0,0,-0.8,0,595.276)"
         id="rect3250"
         style="fill:#ffffff;fill-opacity:1;stroke:#ffffff;stroke-width:1;stroke-linecap:round;stroke-linejoin:round;stroke-miterlimit:4;stroke-opacity:1;stroke-dasharray:2, 4;stroke-dashoffset:0" /><g
         transform="matrix(0.60451739,0,0,-0.60451739,27.269672,237.06529)"
         id="text3320"
         style="font-size:63.42775726px;font-style:normal;font-variant:normal;font-weight:normal;font-stretch:normal;line-height:125%;letter-spacing:0px;word-spacing:0px;fill:#000080;fill-opacity:1;stroke:none;font-family:Handwriting -Dakota;-inkscape-font-specification:Handwriting -Dakota"><path
           d="m 70.168036,-536.50697 c -4.7e-5,7.69593 -5.856538,13.63699 -17.569489,17.8232 -2.367997,0.84572 -6.554224,2.07199 -12.558696,3.67881 -1.733707,0.46515 -3.192544,1.5857 -4.376515,3.36167 -0.253723,0.38058 -1.078283,1.98741 -2.473683,4.82051 -0.845712,1.73369 -1.754843,2.79082 -2.727393,3.17139 -1.310847,-0.59199 -1.966266,-1.41655 -1.966261,-2.47368 -5e-6,-0.93027 0.676557,-2.24111 2.029688,-3.93253 0.5497,-0.67655 1.522258,-1.92396 2.917677,-3.74223 0.338271,-0.46513 0.761122,-2.15653 1.268555,-5.07422 0.211415,-1.26854 0.591981,-2.21996 1.1417,-2.85425 l 1.775977,1.20512 c 3.467366,-4.94734 5.327912,-7.59016 5.581643,-7.92846 2.325662,-3.67879 3.488503,-6.51189 3.488526,-8.49932 -2.537131,1.35315 -4.7571,2.17771 -6.659914,2.47368 l 0,-0.63428 -0.57085,-0.63428 0.57085,-2.34682 c 1.902814,-1.47995 5.349052,-2.98107 10.338724,-4.50337 4.862763,-1.47995 8.604997,-2.21993 11.226713,-2.21998 2.663925,5e-5 4.757039,0.71889 6.279348,2.15655 1.52222,1.43773 2.283353,3.48856 2.2834,6.15249 m -3.234816,0.95142 c -4.4e-5,-1.94509 -0.676606,-3.44621 -2.029688,-4.50337 -1.184025,-0.93024 -2.79086,-1.39538 -4.82051,-1.39541 -1.691442,3e-5 -3.340562,0.31717 -4.947365,0.95141 -1.860577,0.76117 -3.129131,1.77601 -3.805665,3.04453 -0.59202,1.43773 -1.184012,2.85428 -1.775977,4.24966 l -4.883938,6.72335 c -1.775997,2.57941 -3.129121,4.98966 -4.059376,7.23076 l 0.57085,0.63428 0.570849,0 c 3.805644,1e-5 8.816431,-1.86053 15.032379,-5.58165 6.765587,-4.05935 10.148397,-7.84387 10.148441,-11.35356"
           id="path4141" /><path
           d="m 97.466748,-503.01711 c -0.930306,2.02968 -2.029719,3.04452 -3.298243,3.04453 -1.437724,-1e-5 -3.023417,-1.05713 -4.757082,-3.17139 -1.353149,-1.60683 -2.452562,-3.34053 -3.298243,-5.20108 -3.551973,1.69141 -5.962225,2.79083 -7.230765,3.29825 -3.129114,1.22627 -5.645079,1.8394 -7.547903,1.8394 -3.340532,0 -5.010794,-1.6914 -5.010793,-5.07422 -10e-7,-5.45477 2.959958,-10.31756 8.879886,-14.58838 1.945106,-1.39539 4.566784,-2.89651 7.865042,-4.50337 3.932499,-1.90281 6.723317,-2.85423 8.372464,-2.85425 1.141672,2e-5 2.219943,0.61316 3.234816,1.8394 1.014813,1.2263 1.522234,2.43142 1.522266,3.61539 -3.2e-5,2.3257 -0.930304,5.39137 -2.790821,9.19702 -1.81829,3.76339 -2.72742,5.94107 -2.727394,6.53306 -2.6e-5,2.02969 0.317112,3.4251 0.951416,4.18623 0.507395,0.63428 2.452511,1.24741 5.835354,1.83941 m -2.283399,-21.43859 c -3.1e-5,-1.52224 -1.31087,-2.28337 -3.932521,-2.2834 -3.847974,3e-5 -7.040501,0.86687 -9.577591,2.60054 -2.367985,1.60686 -4.820522,3.7634 -7.35762,6.46963 -3.21368,3.42511 -4.820515,6.13136 -4.82051,8.11876 -5e-6,1.18399 0.507417,2.09312 1.522266,2.72739 0.887982,0.54971 1.966252,0.82456 3.234816,0.82456 3.678797,0 6.829039,-1.28969 9.450736,-3.86909 0.634258,-0.63427 2.431376,-3.06567 5.391359,-7.29419 1.818236,-2.62167 3.573069,-3.93251 5.264504,-3.93252 0.549677,-1.18397 0.82453,-2.30453 0.824561,-3.36168 m 2.093116,22.70714 0,-0.19028 0.126855,0 0,-0.19029 -0.126855,0 0,-0.38056 0.253711,0 0,0.12685 -0.126856,0 0,0.12686 0.126856,0 0,0.50742 -0.253711,0"
           id="path4143" /><path
           d="m 122.87353,-518.04949 -9.95816,-3.23482 c -2.45255,2e-5 -4.6091,1.67028 -6.46963,5.01079 -0.67657,1.14172 -1.81827,3.84796 -3.4251,8.11876 -1.56456,4.22852 -4.101664,6.34277 -7.611329,6.34277 0.211425,-1.73369 1.310838,-4.1228 3.298243,-7.16733 2.156536,-3.29824 3.446236,-5.72963 3.869096,-7.2942 0.33827,-1.31082 0.57084,-3.46736 0.6977,-6.46963 0.0423,-1.26853 0.33828,-2.57937 0.88799,-3.93252 0.76112,-1.90281 1.62797,-2.89651 2.60054,-2.9811 l 1.20513,0.0634 0.63427,4.31308 c 0.29599,1.09944 1.28969,1.64914 2.98111,1.64912 l 2.15654,0 c 0.38055,-0.0423 0.67655,-0.0634 0.88799,-0.0634 4.86277,-0.0845 7.6113,1.79714 8.24561,5.64507"
           id="path4145" /><path
           d="m 152.8372,-541.64462 c -3e-5,1.05717 -0.35946,2.24115 -1.07828,3.55196 -0.29602,0.54974 -1.58572,2.34686 -3.86909,5.39136 1.0571,0.71887 2.13538,1.41658 3.23482,2.09311 1.18395,0.97259 1.71252,2.072 1.58569,3.29824 l -0.0634,0.69771 c -0.0423,2e-5 -1.01487,-0.29597 -2.91767,-0.88799 -1.2263,-0.38054 -2.17772,-0.57082 -2.85425,-0.57085 -2.32571,3e-5 -5.68738,2.45256 -10.08502,7.35762 -4.35538,4.86281 -6.53306,8.49933 -6.53306,10.90958 0,2.07197 1.86054,3.5731 5.58165,4.50337 2.36795,0.59199 5.03191,0.88799 7.99189,0.88799 1.14168,0 2.30452,-0.0846 3.48853,-0.25372 -0.0423,0.21143 0.14797,0.592 0.57085,1.1417 -2.66399,1.01485 -5.30681,1.52227 -7.92847,1.52227 -9.51417,0 -14.27125,-2.32568 -14.27124,-6.97705 -1e-5,-2.74853 2.3891,-6.78676 7.16733,-12.1147 l 5.45479,-6.08907 -2.21997,-0.12686 c -0.93029,-0.0423 -2.1777,0.21145 -3.74224,0.76114 -3.08682,1.09943 -4.90508,1.64914 -5.45479,1.64912 -0.71885,2e-5 -1.39541,-0.2114 -2.02968,-0.63428 -0.592,-0.46511 -0.88799,-1.03596 -0.88799,-1.71255 0,-1.64909 1.88168,-2.47365 5.64507,-2.47368 0.38056,3e-5 0.93026,0.0212 1.64912,0.0634 0.71884,0.0423 1.26854,0.0635 1.64912,0.0634 3.21366,2e-5 5.85648,-0.54968 7.92847,-1.64913 2.11424,-1.09938 3.97478,-3.00221 5.58164,-5.70849 0.54969,-0.93024 1.83938,-3.55192 3.8691,-7.86505 0.54968,5e-5 1.09938,0.38061 1.64912,1.1417 0.59196,0.76118 0.88796,1.43774 0.88799,2.02969"
           id="path4147" /><path
           d="m 186.24479,-528.64193 c -3e-5,1.60686 -1.26858,3.93254 -3.80566,6.97706 -1.35315,1.56456 -3.72112,4.39767 -7.10391,8.49931 -2.53713,3.12911 -3.80568,5.70851 -3.80566,7.73819 -2e-5,0.54971 0.0846,1.01485 0.25371,1.39541 -3.21369,0.88799 -6.23708,3.46738 -9.07017,7.73819 l -9.51417,14.46153 c -0.59199,-0.12688 -1.71255,-0.71887 -3.36167,-1.77598 0.67657,-1.39543 2.19883,-3.59426 4.5668,-6.59649 1.22627,-1.4377 3.02339,-3.61539 5.39136,-6.53306 1.98739,-2.49483 2.98109,-4.14395 2.9811,-4.94736 -1e-5,-1.22627 -0.97256,-1.83941 -2.91767,-1.83941 l -1.26856,0 c -1.94512,-0.21142 -3.36167,-1.86054 -4.24966,-4.94736 -0.59199,-2.07197 -0.88799,-4.43993 -0.88799,-7.10391 0,-2.95995 0.31714,-6.42733 0.95142,-10.40215 2.57939,2e-5 3.86909,2.07199 3.86909,6.21592 0,0.76115 -0.0846,1.8817 -0.25371,3.36167 -0.12686,1.47999 -0.19029,2.60055 -0.19028,3.36167 -1e-5,5.1588 2.24111,7.73819 6.72334,7.73819 1.3954,0 3.42509,-1.90283 6.08907,-5.7085 0.76111,-1.09941 3.17136,-4.92621 7.23076,-11.48043 2.87536,-4.65134 5.03191,-7.63244 6.46963,-8.94331 0.29597,0.21145 0.67653,0.65545 1.1417,1.33198 0.50739,0.67659 0.7611,1.16287 0.76113,1.45884"
           id="path4149" /></g><g
         transform="matrix(0.60451739,0,0,-0.60451739,71.576855,258.32622)"
         id="text3324"
         style="font-size:63.42775726px;font-style:normal;font-variant:normal;font-weight:bold;font-stretch:normal;line-height:125%;letter-spacing:0px;word-spacing:0px;fill:#000080;fill-opacity:1;stroke:none;font-family:Impact;-inkscape-font-specification:Impact Bold"><path
           d="m 125.43047,-476.56638 -0.2168,3.90229 c 0.9704,-1.54849 2.12663,-2.70472 3.46871,-3.4687 1.34204,-0.78455 2.86992,-1.17684 4.58365,-1.17688 3.34479,4e-5 5.97729,1.54857 7.8975,4.64558 1.05296,-1.54849 2.24017,-2.70472 3.56161,-3.4687 1.32138,-0.78455 2.78732,-1.17684 4.39783,-1.17688 2.1266,4e-5 3.8816,0.51621 5.26499,1.54853 1.40396,1.03239 2.30211,2.30218 2.69445,3.80938 0.39224,1.48662 0.58839,3.91265 0.58844,7.27808 l 0,29.20527 -12.14047,0 0,-26.78956 c -4e-5,-3.50997 -0.12392,-5.67791 -0.37165,-6.50382 -0.22715,-0.8465 -0.7743,-1.26976 -1.64144,-1.2698 -0.88786,4e-5 -1.46597,0.41298 -1.73435,1.23883 -0.2478,0.82591 -0.37168,3.00417 -0.37165,6.53479 l 0,26.78956 -12.14047,0 0,-26.10821 c -2e-5,-4.02614 -0.10325,-6.44185 -0.30971,-7.24711 -0.18584,-0.8052 -0.72266,-1.20782 -1.61047,-1.20786 -0.55748,4e-5 -1.03236,0.21683 -1.42464,0.65039 -0.39231,0.41297 -0.60911,0.92915 -0.65038,1.54852 -0.0413,0.5988 -0.062,1.88924 -0.062,3.87133 l 0,28.49294 -12.14047,0 0,-41.09797 12.35727,0"
           id="path4152" /><path
           d="m 190.31384,-462.13409 0,10.06544 c -3e-5,3.69584 -0.18585,6.41092 -0.55747,8.14527 -0.37167,1.71371 -1.16658,3.32418 -2.38473,4.83141 -1.2182,1.48659 -2.78738,2.5912 -4.70753,3.31385 -1.89955,0.702 -4.08814,1.053 -6.56576,1.053 -2.76672,0 -5.11016,-0.29938 -7.03033,-0.89815 -1.92018,-0.61941 -3.41709,-1.5382 -4.49073,-2.75638 -1.05301,-1.23882 -1.80662,-2.72541 -2.26085,-4.45976 -0.45424,-1.75499 -0.68136,-4.37717 -0.68136,-7.86653 l 0,-10.53 c 0,-3.81968 0.41294,-6.80317 1.23883,-8.9505 0.82587,-2.14726 2.31246,-3.87128 4.45976,-5.17209 2.14728,-1.30072 4.89334,-1.9511 8.23818,-1.95114 2.80798,4e-5 5.21336,0.4233 7.21614,1.26979 2.02339,0.82592 3.58224,1.90989 4.67656,3.25191 1.09427,1.3421 1.83756,2.72545 2.22988,4.15006 0.41291,1.42468 0.61938,3.59262 0.61941,6.50382 m -12.51211,-3.09706 c -2e-5,-2.10596 -0.11358,-3.42737 -0.34068,-3.96423 -0.22713,-0.55744 -0.71234,-0.83617 -1.45562,-0.83621 -0.74331,4e-5 -1.23883,0.27877 -1.48658,0.83621 -0.24778,0.53686 -0.37167,1.85827 -0.37165,3.96423 l 0,18.55138 c -2e-5,1.94084 0.12387,3.21063 0.37165,3.80939 0.24775,0.57812 0.73295,0.86718 1.45561,0.86717 0.74328,1e-5 1.22849,-0.2684 1.45562,-0.80523 0.24775,-0.53682 0.37163,-1.69305 0.37165,-3.46871 l 0,-18.954"
           id="path4154" /><path
           d="m 222.92587,-485.60979 0,50.14138 -12.51211,0 0,-2.97318 c -1.19755,1.23882 -2.45702,2.16794 -3.77841,2.78735 -1.32143,0.61941 -2.70478,0.92912 -4.15006,0.92912 -1.94083,0 -3.62357,-0.50585 -5.04821,-1.51756 -1.42465,-1.03235 -2.34344,-2.21955 -2.75638,-3.56162 -0.3923,-1.34205 -0.58844,-3.53063 -0.58844,-6.56576 l 0,-19.23273 c 0,-3.15897 0.19614,-5.39917 0.58844,-6.72062 0.41294,-1.32137 1.34206,-2.47761 2.78735,-3.46871 1.44529,-1.01166 3.16932,-1.51751 5.17209,-1.51755 1.54852,4e-5 2.96284,0.27877 4.24297,0.8362 1.30075,0.55751 2.47763,1.39372 3.53065,2.50862 l 0,-11.64494 12.51211,0 m -12.51211,19.38759 c -2e-5,-1.50721 -0.13423,-2.51891 -0.40262,-3.03512 -0.24778,-0.51614 -0.75363,-0.77423 -1.51756,-0.77427 -0.74331,4e-5 -1.24916,0.23748 -1.51756,0.71233 -0.24778,0.45427 -0.37166,1.48662 -0.37164,3.09706 l 0,20.13088 c -2e-5,1.67242 0.12386,2.77703 0.37164,3.31385 0.24775,0.51618 0.72263,0.77427 1.42465,0.77426 0.80522,1e-5 1.34204,-0.28905 1.61047,-0.86717 0.26839,-0.59876 0.4026,-2.04405 0.40262,-4.33589 l 0,-19.01593"
           id="path4156" /><path
           d="m 255.75469,-455.28959 -16.19762,0 0,8.88856 c -1e-5,1.85824 0.13419,3.05577 0.40262,3.59259 0.2684,0.53683 0.78457,0.80524 1.54853,0.80523 0.94975,1e-5 1.57948,-0.35099 1.88921,-1.053 0.33033,-0.72264 0.49551,-2.10599 0.49552,-4.15006 l 0,-5.41985 11.86174,0 0,3.03512 c -3e-5,2.5396 -0.16521,4.49074 -0.49553,5.85344 -0.30974,1.36271 -1.05303,2.81833 -2.22988,4.36685 -1.17691,1.54853 -2.67382,2.71509 -4.49074,3.49968 -1.79631,0.76394 -4.05716,1.14591 -6.78256,1.14591 -2.64283,0 -4.97595,-0.38197 -6.99935,-1.14591 -2.02342,-0.76394 -3.60291,-1.80662 -4.7385,-3.12803 -1.11494,-1.34205 -1.88921,-2.80799 -2.32279,-4.39782 -0.43359,-1.61046 -0.65038,-3.94358 -0.65038,-6.99936 l 0,-11.98561 c 0,-3.59256 0.4852,-6.4212 1.45561,-8.48594 0.97041,-2.08532 2.56023,-3.67514 4.76947,-4.76947 2.20923,-1.1149 4.74881,-1.67237 7.61877,-1.67241 3.50998,4e-5 6.40056,0.67107 8.67176,2.01308 2.2918,1.32145 3.89194,3.08678 4.80044,5.29597 0.92909,2.18862 1.39365,5.27536 1.39368,9.26021 l 0,5.45082 m -12.54309,-6.68964 0,-3.00415 c -2e-5,-2.12662 -0.11357,-3.49964 -0.34067,-4.11909 -0.22714,-0.61938 -0.6917,-0.92908 -1.39368,-0.92912 -0.86719,4e-5 -1.40402,0.26845 -1.61047,0.80524 -0.20649,0.51621 -0.30972,1.93053 -0.30971,4.24297 l 0,3.00415 3.65453,0"
           id="path4158" /></g></g></g></svg>