<?xml version="1.0" encoding="UTF-8" standalone="no"?>
<!-- Created with Inkscape (http://www.inkscape.org/) -->

<svg
   xmlns:dc="http://purl.org/dc/elements/1.1/"
   xmlns:cc="http://creativecommons.org/ns#"
   xmlns:rdf="http://www.w3.org/1999/02/22-rdf-syntax-ns#"
   xmlns:svg="http://www.w3.org/2000/svg"
   xmlns="http://www.w3.org/2000/svg"
   xmlns:sodipodi="http://sodipodi.sourceforge.net/DTD/sodipodi-0.dtd"
   xmlns:inkscape="http://www.inkscape.org/namespaces/inkscape"
   id="svg3023"
   version="1.1"
   inkscape:version="0.48.1 r9760"
   width="1052.3625"
   height="744.095"
   xml:space="preserve"
   sodipodi:docname="logo.svg"><metadata
     id="metadata3029"><rdf:RDF><cc:Work
         rdf:about=""><dc:format>image/svg+xml</dc:format><dc:type
           rdf:resource="http://purl.org/dc/dcmitype/StillImage" /><dc:title /></cc:Work></rdf:RDF></metadata><defs
     id="defs3027"><linearGradient
       x1="0"
       y1="0"
       x2="1"
       y2="0"
       gradientUnits="userSpaceOnUse"
       gradientTransform="matrix(0,614.26172,-614.26172,0,420.37354,-11.173828)"
       spreadMethod="pad"
       id="linearGradient3045"><stop
         style="stop-opacity:1;stop-color:#afd144"
         offset="0"
         id="stop3047" /><stop
         style="stop-opacity:1;stop-color:#82c15e"
         offset="0.325836"
         id="stop3049" /><stop
         style="stop-opacity:1;stop-color:#5ecaf4"
         offset="0.949432"
         id="stop3051" /><stop
         style="stop-opacity:1;stop-color:#5ecaf4"
         offset="1"
         id="stop3053" /></linearGradient><clipPath
       clipPathUnits="userSpaceOnUse"
       id="clipPath3061"><path
         d="m 0,595.276 841.89,0 L 841.89,0 0,0 0,595.276 z"
         id="path3063" /></clipPath><clipPath
       clipPathUnits="userSpaceOnUse"
       id="clipPath3820"><rect
         style="fill:#000000;fill-opacity:1;stroke:none"
         id="rect3822"
         width="205.60669"
         height="163.74107"
         x="101.53603"
         y="-440.54407"
         transform="scale(1,-1)" /></clipPath><clipPath
       clipPathUnits="userSpaceOnUse"
       id="clipPath3826"><rect
         transform="scale(1,-1)"
         y="-225.0106"
         x="-62.482121"
         height="184.08823"
         width="203.76178"
         id="rect3828"
         style="fill:#000000;fill-opacity:1;stroke:none" /></clipPath><clipPath
       clipPathUnits="userSpaceOnUse"
       id="clipPath3830"><rect
         transform="scale(1,-1)"
         y="-234.94289"
         x="-16.342449"
         height="329.34283"
         width="184.20869"
         id="rect3832"
         style="fill:#000000;fill-opacity:1;stroke:none" /></clipPath></defs><sodipodi:namedview
     pagecolor="#ffffff"
     bordercolor="#666666"
     borderopacity="1"
     objecttolerance="10"
     gridtolerance="10"
     guidetolerance="10"
     inkscape:pageopacity="0"
     inkscape:pageshadow="2"
     inkscape:window-width="1909"
     inkscape:window-height="1148"
     id="namedview3025"
     showgrid="false"
     inkscape:zoom="1"
     inkscape:cx="449.55691"
     inkscape:cy="376.05793"
     inkscape:window-x="1683"
     inkscape:window-y="0"
     inkscape:window-maximized="0"
     inkscape:current-layer="g3059" /><g
     id="g3031"
     inkscape:groupmode="layer"
     inkscape:label="Dancers-Silhouettes-Vectors"
     transform="matrix(1.25,0,0,-1.25,0,744.095)"><g
       clip-path="url(#clipPath3061)"
       id="g3059"
       style="display:inline"><rect
         style="fill:#87ceeb;fill-opacity:1;stroke:none;stroke-width:0.75640099999999999;stroke-linecap:round;stroke-linejoin:round;stroke-miterlimit:4;stroke-opacity:1;stroke-dasharray:1.51280198000000010, 3.02560394999999982;stroke-dashoffset:0"
         id="rect3309"
         width="797.6048"
         height="268.28702"
         x="12.106917"
         y="-573.27435"
         transform="scale(1,-1)" /><path
         style="fill:#ff0000;fill-opacity:1;stroke:none;stroke-width:0.68791544000000004;stroke-linecap:round;stroke-linejoin:round;stroke-miterlimit:4;stroke-opacity:1;stroke-dasharray:1.37583082000000001, 2.75166164000000002;stroke-dashoffset:0"
         d="m 802.14462,580.84147 24.07703,0 -178.858,-279.98157 -156.84471,0 z"
         id="rect3317"
         inkscape:connector-curvature="0"
         sodipodi:nodetypes="ccccc" /><path
         style="fill:#ffff00;fill-opacity:1;stroke:none;stroke-width:0.69788861000000002;stroke-linecap:round;stroke-linejoin:round;stroke-miterlimit:4;stroke-opacity:1;stroke-dasharray:1.39577722000000004, 2.79155444000000008;stroke-dashoffset:0"
         d="m 242.18147,585.65688 44.71451,0 184.36132,-303.02674 -193.30423,0 z"
         id="rect3311"
         inkscape:connector-curvature="0"
         sodipodi:nodetypes="ccccc" /><g
         id="g3274"
         transform="matrix(0.85989423,0,0,0.85989423,379.76455,62.841146)"
         style="fill:#000080"
         clip-path="url(#clipPath3820)"><g
           style="fill:#000080"
           id="g3131"
           transform="translate(188.9116,302.6514)"><path
             d="m 0,0 17.052,-37.611 c 0,0 -1.733,-9.892 -3.132,-11.872 -1.388,-1.975 -25.064,-28.37 -28.198,-38.924 -3.136,-10.555 -6.961,-11.875 -6.264,-17.816 0.691,-5.938 0.691,-13.192 3.128,-14.512 0,0 -6.266,-1.978 -6.612,17.151 0,0 -3.475,-0.657 -3.135,-6.593 l 4.53,12.531 c 0,0 11.487,23.754 16.358,36.947 4.877,13.196 16.017,21.114 13.233,25.727 -2.788,4.619 -18.802,14.522 -20.541,27.713 C -15.32,5.934 0,0 0,0"
             style="fill:#000080;fill-opacity:1;fill-rule:nonzero;stroke:none"
             id="path3133"
             inkscape:connector-curvature="0" /></g><g
           style="fill:#000080"
           id="g3135"
           transform="translate(142.1626,361.4751)"><path
             d="M 0,0 3.723,12.873 6.545,7.826 0,0 z M -11.784,-16.519 C -3.55,-17.101 14.39,8.062 14.39,8.062 c 0,0 2.379,-1.766 0.875,-6.561 -1.522,-4.797 1.736,-8.629 3.686,-12.727 1.957,-4.095 -0.466,-14.457 -2.852,-20.553 0,0 -2.948,-4.409 -7.706,-17.718 -3.615,-10.097 1.031,-21.858 5.534,-29.784 l -0.572,-1.921 c 0,0 0.45,0.28 1.281,0.766 3.506,2.087 13.689,7.982 23.502,12.224 6.589,2.321 12.402,3.845 15.895,4.666 0.312,0.009 0.625,0.009 0.914,0 l -0.374,0.125 c 0.075,0.02 0.164,0.041 0.236,0.054 -2.489,2.533 -4.865,4.973 -6.954,7.232 -8.938,9.645 -16.576,20.678 -16.978,28.229 -0.388,7.555 5.068,19.656 7.716,24.457 0.684,1.249 1.059,2.602 1.226,3.95 7.413,-5.48 23.052,-16.933 23.747,-16.574 0.892,0.467 15.384,21.266 20.636,36.937 0,0 3.788,2.468 3.373,4.511 -0.408,2.045 -2.335,7.333 -1.515,9.623 0.3,0.828 4.591,3.38 4.8,4.626 0.153,0.853 -5.086,-4.021 -5.824,-3.448 -1.184,0.924 3.179,6.368 2.563,7.18 -0.511,0.681 -2.696,-3.628 -3.615,-7.286 -0.123,-0.522 -0.422,1.492 -0.35,3.867 0.078,2.376 0.533,5.105 0.388,5.076 -0.603,-0.134 -1.28,-5.699 -2.029,-9.369 -0.112,-0.534 -1.569,7.891 -1.797,7.38 -0.184,-0.42 -0.534,0.095 -0.184,-2.645 0.334,-2.472 1.355,-8.249 1.372,-8.349 0.031,-0.287 -2.791,2.063 -2.754,1.775 0.157,-1.329 2.423,-3.252 2.76,-4.617 1.001,-4.069 0.457,-7.24 0.457,-7.24 0,0 -4.956,-10.079 -7.917,-14.502 -2.954,-4.43 -12.928,-14.382 -12.928,-14.382 0,0 -17.739,12.316 -19.682,17.742 -0.953,2.661 -1.399,5.146 -2.764,6.688 C 53.682,16.478 46.51,33.39 46.51,33.39 44.57,27.306 38.917,17.135 31.558,26.327 28.992,29.542 31.865,41.583 29.914,46.8 27.494,53.261 19.962,59.569 17.113,59.822 8.611,60.582 4.084,55.572 2.838,52.845 -2.458,41.217 2.9,32.36 6.12,28.667 5.977,26.373 5.602,22.738 1,23.726 c -4.833,1.043 -6.769,4.936 -3.648,8.575 0,0 -4.966,-4.011 -2.58,-10.378 1.45,-3.883 2.267,-5.969 6.641,-5.314 C -1.048,12.54 -3.775,7.713 -6.032,3.05 c -6.841,-14.173 -5.752,-19.569 -5.752,-19.569"
             style="fill:#000080;fill-opacity:1;fill-rule:nonzero;stroke:none"
             id="path3137"
             inkscape:connector-curvature="0" /></g><g
           style="fill:#000080"
           id="g3139"
           transform="translate(168.4487,308.2334)"><path
             d="m 0,0 15.786,-44.032 c 0,0 -1.61,-11.578 -2.9,-13.9 -1.29,-2.314 -23.199,-33.212 -26.095,-45.568 -2.904,-12.361 -6.447,-13.907 -5.804,-20.857 0.64,-6.95 0.64,-15.446 2.9,-16.991 0,0 -5.796,-2.32 -6.119,20.082 0,0 -3.224,-0.776 -2.908,-7.726 l 4.197,14.679 c 0,0 10.633,27.804 15.147,43.25 4.505,15.453 14.815,24.717 12.232,30.123 -2.573,5.407 -17.393,16.994 -19.005,32.442 C -14.18,6.95 0,0 0,0"
             style="fill:#000080;fill-opacity:1;fill-rule:nonzero;stroke:none"
             id="path3141"
             inkscape:connector-curvature="0" /></g></g><g
         transform="matrix(1.1385845,0,0,1.1385845,373.54117,203.00646)"
         id="g3143"
         style="fill:#000080"
         clip-path="url(#clipPath3826)"><path
           inkscape:connector-curvature="0"
           id="path3145"
           style="fill:#000080;fill-opacity:1;fill-rule:nonzero;stroke:none"
           d="m 36.8,144.8 c 3.591,9.741 7.478,12.038 7.478,12.038 l -0.998,4.776 c 0,0 17.638,14.04 20.132,17.1 2.489,3.056 1.498,3.818 -0.898,7.065 -2.389,3.251 -8.968,8.983 -12.454,11.753 -3.492,2.77 -9.571,9.169 -11.565,10.697 -1.991,1.529 -3.288,5.545 -3.788,6.403 -0.497,0.858 0.639,1.841 0.336,2.702 -0.296,0.858 -1.93,-2.321 -1.93,-2.321 0,0 -0.497,0.762 -0.197,2.103 0.3,1.338 2.856,3.03 2.591,3.724 -0.263,0.698 -3.789,-3.819 -3.789,-3.819 0,0 0.3,1.814 1.1,2.767 0.795,0.956 1.392,2.866 1.392,2.866 0,0 -2.492,-1.048 -4.183,-2.195 -1.696,-1.144 -2.39,-2.869 -2.39,-2.869 -0.204,1.051 1.093,3.917 1.59,4.683 0.5,0.765 0.302,0.956 0.302,0.956 0,0 -1.892,-1.909 -2.692,-3.246 -0.796,-1.342 -0.898,-3.727 -0.898,-5.545 0,-1.814 5.779,-4.2 9.37,-7.257 3.591,-3.06 5.418,-3.856 10.068,-10.098 4.649,-6.24 10.626,-10.061 11.293,-14.391 0.664,-4.329 -11.293,-10.064 -11.293,-10.064 -6.514,0.132 -9.17,-5.476 -9.17,-5.476 -10.898,-0.641 -10.366,11.592 -10.366,11.592 l 2.389,-0.895 0.136,1.654 c 1.994,-0.888 4.25,0.643 4.25,0.643 -3.189,-1.147 -4.117,5.603 -3.856,12.226 0.272,6.62 -1.456,10.316 -7.57,12.866 -6.112,2.546 -12.358,-0.256 -14.216,-1.913 -1.862,-1.654 -9.973,-4.585 -13.424,-10.823 -3.455,-6.246 -9.833,-5.222 -9.833,-5.222 4.918,-3.44 13.553,6.235 13.553,6.235 0,0 -2.124,-4.836 -5.048,-9.424 -2.923,-4.588 -7.042,-3.308 -7.042,-3.308 0,0 3.986,-2.934 7.437,-3.564 3.459,-0.643 6.648,7.253 6.648,7.253 1.46,-4.459 -4.119,-7.389 -4.119,-7.389 0,0 7.706,-0.507 8.506,-0.377 0.793,0.125 3.72,3.948 3.72,3.948 5.575,-6.114 8.369,-6.243 9.564,-6.88 1.195,-0.636 3.057,1.148 3.057,1.148 1.861,-12.1 -11.161,-9.677 -11.161,-9.677 l 0.133,1.143 c -9.7,0.511 -8.642,-3.695 -9.435,-8.917 -0.8,-5.22 -15.017,-19.489 -15.017,-19.489 0,0 -11.16,7.134 -14.747,10.571 -3.591,3.442 -10.103,11.594 -10.103,11.594 0,0 -1.099,2.746 -0.932,6.575 0.054,1.291 1.814,3.428 1.709,4.653 -0.017,0.259 -2.213,-2.359 -2.233,-2.096 -0.004,0.091 -0.133,5.462 -0.3,7.74 -0.18,2.529 -0.408,1.997 -0.66,2.341 -0.306,0.416 -0.085,-7.402 -0.286,-6.95 -1.388,3.165 -3.067,8.036 -3.648,8.046 -0.147,0 0.789,-2.372 1.303,-4.489 0.524,-2.117 0.62,-3.979 0.401,-3.537 -1.538,3.121 -4.384,6.597 -4.734,5.892 -0.416,-0.837 4.673,-4.942 3.741,-5.983 -0.582,-0.65 -6.372,2.78 -6.079,2.042 0.436,-1.083 4.915,-2.597 5.34,-3.282 1.199,-1.909 0.398,-7.004 0.398,-8.914 0,-1.915 3.99,-3.441 3.99,-3.441 7.841,-13.117 25.248,-29.169 26.18,-29.424 0.926,-0.249 22.055,22.42 22.055,22.42 -3.887,-7.614 2.393,-10 2.393,-10 0,0 -1.719,-17.277 -6.28,-21.933 -4.567,-4.646 -12.855,-5.963 -16.541,-23.635 -3.69,-17.671 -2.594,-16.913 -2.594,-16.913 0,0 4.088,-1.715 5.48,-2.095 0,0 1.995,-13.571 4.489,-20.922 2.489,-7.359 2.291,-12.329 2.788,-16.145 0.501,-3.822 1.79,-10.506 5.279,-16.146 3.492,-5.636 5.286,-13.568 5.983,-18.822 0.698,-5.248 0.1,-15 -0.299,-17.577 -0.398,-2.58 -0.698,-6.497 4.486,-6.21 5.18,0.285 3.087,6.976 2.093,12.038 -0.997,5.06 -5.282,16.909 -5.479,21.497 -0.201,4.584 0.197,16.334 -1.896,24.264 -2.093,7.93 -3.489,8.312 -3.489,12.705 0,4.396 -4.183,20.825 -3.386,24.166 0,0 2.491,-0.953 4.581,-1.144 0,0 5.384,-17.385 7.576,-20.35 2.192,-2.956 3.588,-3.055 5.279,-3.246 1.696,-0.191 9.071,-9.078 12.757,-11.562 3.69,-2.482 11.062,-9.837 14.251,-13.465 3.189,-3.635 3.189,-5.255 3.788,-6.593 0.599,-1.337 2.193,-2.676 3.387,-4.68 1.198,-2.005 3.192,-7.172 4.686,-9.459 1.495,-2.297 5.678,-4.878 6.58,-4.397 0.895,0.483 1.297,5.544 -0.103,7.55 -1.395,2.004 -5.084,5.823 -8.467,9.649 -3.39,3.822 -6.28,7.93 -8.074,10.407 -1.797,2.489 -7.774,12.328 -10.068,17.962 -2.29,5.64 -10.663,10.224 -13.254,10.32 -2.59,0.095 -7.075,16.241 -7.075,16.241 l 5.479,-0.289 c 0,0 -2.59,11.844 -2.692,16.817 -0.096,4.966 -0.537,18.22 1.433,22.239 6.705,13.676 14.217,23.043 17.801,32.788" /></g><g
         transform="matrix(0.85989423,0,0,0.85989423,626.25161,408.37813)"
         id="g3147"
         style="fill:#000080"><path
           inkscape:connector-curvature="0"
           id="path3149"
           style="fill:#000080;fill-opacity:1;fill-rule:nonzero;stroke:none"
           d="m 0,0 c 0,0 -8.873,6.372 -6.654,12.275 2.212,5.902 6.252,4.671 5.643,10.809 -0.609,6.138 -2.022,17.215 1.204,24.82 3.224,7.607 12.094,24.806 23.387,12.765 0,0 12.686,-2.948 15.313,-12.04 2.631,-9.089 4.04,-11.279 3.431,-14.483 -0.613,-3.207 4.843,-7.876 -0.398,-13.758 0,0 5.629,-4.656 5.837,-8.347 0,0 4.428,-10.559 5.241,-6.882 0.821,3.677 -0.79,-5.176 -3.011,-2.459 l 7.454,-23.088 c 0,0 6.657,-11.545 7.862,-14.249 1.204,-2.695 8.066,-18.409 14.516,-22.338 6.446,-3.933 9.074,-7.602 9.476,-9.579 0.401,-1.971 4.036,-4.18 2.824,-5.162 0,0 3.224,-2.714 -0.21,-3.201 0,0 -3.214,-2.447 -4.027,-0.238 0,0 -2.838,-2.949 -4.034,-1.229 0,0 -1.817,-1.467 -5.043,3.441 -3.22,4.905 -3.608,10.082 -5.837,12.035 -2.227,1.956 -20.977,22.112 -24.203,27.755 l -2.005,4.654 -2.019,-0.974 c 0,0 -1.409,-6.864 0.803,-16.207 2.213,-9.343 6.447,-22.341 6.447,-29.475 0,-7.131 1.412,-29.237 1.412,-29.237 0,0 -3.226,-3.183 -6.851,-2.442 l -19.761,-41.033 c 0,0 -1.604,-5.642 -0.192,-8.341 1.413,-2.7 6.642,-11.3 3.418,-32.917 -0.401,-13.015 -1.007,-20.143 0,-26.032 1.011,-5.887 3.832,-6.646 2.818,-9.093 -1,-2.445 -3.026,-6.151 -2.818,-12.526 0,0 -12.481,-7.093 -15.51,-2.44 0,0 -0.416,5.661 3.019,6.88 0,0 -2.233,9.573 3.219,7.854 0,0 0.596,3.924 0.804,6.623 0.208,2.702 -1.416,3.206 -0.804,5.905 0.613,2.697 0.998,3.932 -0.612,15.225 -1.603,11.301 -5.017,29.221 -5.626,31.919 -0.609,2.696 -5.453,12.056 -4.442,18.428 1.011,6.378 4.234,31.674 12.301,43.71 l -6.256,-0.488 c 0,0 -3.22,-19.172 -5.643,-23.829 -2.42,-4.649 -12.893,-28.478 -16.331,-30.197 -3.428,-3.689 -2.624,-6.882 -3.829,-10.322 -1.202,-3.436 -8.662,-15.245 -12.899,-20.637 -4.235,-5.392 -6.249,-10.319 -6.651,-13.016 0,0 1.204,-5.146 -2.424,-8.096 -3.624,-2.951 -9.683,-16.46 -12.699,-16.944 0,0 -2.835,-11.551 -9.88,-7.137 0,0 -5.439,1.973 0.207,11.552 0,0 1.215,7.097 4.844,7.604 0,0 8.662,9.58 10.071,11.551 1.412,1.971 3.625,4.432 4.238,6.392 0.606,1.954 6.045,23.808 7.052,27.988 1.007,4.183 4.442,13.764 7.665,17.696 3.223,3.921 6.436,10.061 7.655,19.149 1.215,9.091 4.843,26.777 4.843,26.777 l -1.011,-0.252 c 0,0 4.823,30.468 7.457,36.118 l -10.683,-20.386 c 0,0 0.806,-9.105 0,-10.08 -0.801,-0.983 -2.019,-1.959 -2.019,-1.959 0,0 -1.81,-4.437 -3.223,-4.671 -1.416,-0.237 -8.07,0 -8.07,0 0,0 -1.008,1.23 0,2.206 0,0 -2.819,0.257 0.211,2.465 l 1.409,1.721 c 0,0 -2.005,2.934 1.008,2.442 0,0 2.838,12.057 5.248,11.806 0,0 5.037,12.526 6.045,15.223 1.01,2.7 4.043,18.903 5.643,20.623 1.61,1.719 3.628,8.368 3.628,8.368 l -2.018,-0.254 c 0,0 1.218,17.682 2.42,23.826 1.201,6.137 2.018,15.475 2.018,15.475 L 0,0 z" /></g><g
         transform="matrix(0.85989423,0,0,0.85989423,202.85278,311.57401)"
         id="g3163"
         style="fill:#000080"
         clip-path="url(#clipPath3830)"
         mask="none"><path
           inkscape:connector-curvature="0"
           id="path3165"
           style="fill:#000080;fill-opacity:1;fill-rule:evenodd;stroke:none"
           d="m 0,0 c 1.764,4.906 0.156,8.667 0.732,12.174 0.579,3.51 3.414,11.097 5.354,13.847 1.934,2.757 7.665,6.688 7.665,6.688 0,0 10.507,14.274 15.275,19.422 4.769,5.152 13.88,20.606 23.298,21.814 9.418,1.207 20.769,-0.022 23.958,3.266 3.193,3.293 4.986,7.766 4.986,7.766 0,0 -4.224,3.978 -0.453,10.776 3.765,6.799 7.209,12.273 11.369,14.346 4.152,2.07 17.832,4.06 24.342,-1.458 6.511,-5.522 7.543,-12.79 7.543,-12.79 l 1.102,-2.937 -3.582,-3.756 c 0,0 -1.151,-7.013 -3.626,-8.517 l -0.616,-8.266 c 0,0 -1.975,-2.329 -5.447,-2.179 l -2.796,-2.829 -2.261,-4.075 c 0,0 2.927,-9.275 4.926,-17.765 1.994,-8.485 2.409,-24.021 1.725,-26.24 -0.687,-2.22 6.259,-7.705 8.512,-8.816 2.254,-1.114 20.971,-12.983 20.971,-12.983 0,0 8.406,-2.335 12.054,-9.822 3.642,-7.487 -0.837,-10.882 -0.837,-10.882 l -3.43,4.908 -1.611,3.759 c 0,0 0.858,-5.121 -1.399,-4.006 -2.253,1.11 -5.904,3.406 -7.872,6.273 -1.964,2.867 -3.36,4.049 -3.36,4.049 0,0 -26.49,6.473 -29.137,7.118 -2.649,0.645 -9.484,4.844 -9.484,4.844 0,0 -6.034,-16.07 -6.647,-19.146 -0.612,-3.077 -1.688,-5.762 -1.688,-5.762 0,0 10.32,-25.534 12.389,-34.883 2.066,-9.347 8.272,-32.189 8.591,-36.059 0.316,-3.866 -0.302,-12.14 -1.344,-15.251 -1.041,-3.114 -9.339,-28.448 -10.638,-33.747 -1.294,-5.297 -1.591,-17.434 -1.591,-17.434 0,0 1.783,-5.908 4.683,-9.561 2.893,-3.654 10.912,-6.46 13.094,-6.711 2.185,-0.253 3.825,-4.442 3.825,-4.442 0,0 -14.503,-2.491 -17.327,0.303 -2.829,2.797 -6.439,4.663 -6.439,4.663 l -5.518,-1.322 -11.559,3.806 1.869,8.809 2.59,42.171 c 0,0 -4.742,-10.776 -4.493,-13.779 0.248,-3.008 -3.248,-23.628 -2.603,-26.169 0.638,-2.543 -1.781,-20.473 -1.781,-20.473 l -1.577,-1.862 0.355,-4.299 c 0,0 3.707,-13.533 4.746,-15.609 1.034,-2.083 7.075,-12.395 3.351,-14.43 -3.726,-2.043 -18.951,-6.318 -22.007,15.057 l -2.247,6.304 c 0,0 -4.786,10.849 0.33,11.704 l -0.707,3.4 c 0,0 -0.181,2.148 -0.062,11.245 0.119,9.088 2.539,27.026 2.539,27.026 0,0 -0.01,26.384 1.249,32.109 1.26,5.729 5.872,-2.974 1.552,12.676 -4.313,15.649 -9.883,30.758 -16.78,41.007 -6.903,10.244 -9.819,29.9 -7.838,37.417 0,0 -3.864,4.875 -3.679,7.917 0.181,3.044 2.386,18.362 4.176,22.836 1.797,4.473 2.161,10.56 2.161,10.56 0,0 -14.629,-16.776 -19.073,-20.604 -4.442,-3.824 -1.702,-16.14 -3.813,-16.747 0,0 1.505,-2.473 2.68,-6.269 1.177,-3.795 3.569,-11.818 0.35,-9.488 -3.224,2.331 -4.541,7.845 -4.541,7.845 l -4.261,-0.785 c 0,0 -2.445,-7.12 0.991,-12.028 l -1.113,-2.256 c 0,0 -1.115,-2.252 -2.941,-1.105 -1.825,1.147 -8.333,6.668 -8.333,6.668 0,0 -2.998,10.134 -0.956,11.601 2.042,1.464 4.016,3.79 4.016,3.79 L -0.789,-6.12 c 0,0 -0.968,1.217 0.789,6.12" /></g><rect
         style="fill:#ffffff;fill-opacity:1;stroke:#ffffff;stroke-width:1;stroke-linecap:round;stroke-linejoin:round;stroke-miterlimit:4;stroke-opacity:1;stroke-dasharray:2, 4;stroke-dashoffset:0"
         id="rect3248"
         width="691"
         height="198"
         x="1"
         y="-297.90503"
         transform="matrix(0.8,0,0,-0.8,0,595.276)" /><rect
         style="fill:#ffffff;fill-opacity:1;stroke:#ffffff;stroke-width:1;stroke-linecap:round;stroke-linejoin:round;stroke-miterlimit:4;stroke-opacity:1;stroke-dasharray:2, 4;stroke-dashoffset:0"
         id="rect3250"
         width="458"
         height="175"
         x="19"
         y="-339.90503"
         transform="matrix(0.8,0,0,-0.8,0,595.276)" /><g
         transform="scale(1,-1)"
         style="font-size:63.42775726px;font-style:normal;font-variant:normal;font-weight:normal;font-stretch:normal;line-height:125%;letter-spacing:0px;word-spacing:0px;fill:#000080;fill-opacity:1;stroke:none;font-family:Handwriting -Dakota;-inkscape-font-specification:Handwriting -Dakota"
         id="text3320"><path
           d="m 70.168036,-536.50697 c -4.7e-5,7.69593 -5.856538,13.63699 -17.569489,17.8232 -2.367997,0.84572 -6.554224,2.07199 -12.558696,3.67881 -1.733707,0.46515 -3.192544,1.5857 -4.376515,3.36167 -0.253723,0.38058 -1.078283,1.98741 -2.473683,4.82051 -0.845712,1.73369 -1.754843,2.79082 -2.727393,3.17139 -1.310847,-0.59199 -1.966266,-1.41655 -1.966261,-2.47368 -5e-6,-0.93027 0.676557,-2.24111 2.029688,-3.93253 0.5497,-0.67655 1.522258,-1.92396 2.917677,-3.74223 0.338271,-0.46513 0.761122,-2.15653 1.268555,-5.07422 0.211415,-1.26854 0.591981,-2.21996 1.1417,-2.85425 l 1.775977,1.20512 c 3.467366,-4.94734 5.327912,-7.59016 5.581643,-7.92846 2.325662,-3.67879 3.488503,-6.51189 3.488526,-8.49932 -2.537131,1.35315 -4.7571,2.17771 -6.659914,2.47368 l 0,-0.63428 -0.57085,-0.63428 0.57085,-2.34682 c 1.902814,-1.47995 5.349052,-2.98107 10.338724,-4.50337 4.862763,-1.47995 8.604997,-2.21993 11.226713,-2.21998 2.663925,5e-5 4.757039,0.71889 6.279348,2.15655 1.52222,1.43773 2.283353,3.48856 2.2834,6.15249 m -3.234816,0.95142 c -4.4e-5,-1.94509 -0.676606,-3.44621 -2.029688,-4.50337 -1.184025,-0.93024 -2.79086,-1.39538 -4.82051,-1.39541 -1.691442,3e-5 -3.340562,0.31717 -4.947365,0.95141 -1.860577,0.76117 -3.129131,1.77601 -3.805665,3.04453 -0.59202,1.43773 -1.184012,2.85428 -1.775977,4.24966 l -4.883938,6.72335 c -1.775997,2.57941 -3.129121,4.98966 -4.059376,7.23076 l 0.57085,0.63428 0.570849,0 c 3.805644,1e-5 8.816431,-1.86053 15.032379,-5.58165 6.765587,-4.05935 10.148397,-7.84387 10.148441,-11.35356"
           style=""
           id="path4141" /><path
           d="m 97.466748,-503.01711 c -0.930306,2.02968 -2.029719,3.04452 -3.298243,3.04453 -1.437724,-1e-5 -3.023417,-1.05713 -4.757082,-3.17139 -1.353149,-1.60683 -2.452562,-3.34053 -3.298243,-5.20108 -3.551973,1.69141 -5.962225,2.79083 -7.230765,3.29825 -3.129114,1.22627 -5.645079,1.8394 -7.547903,1.8394 -3.340532,0 -5.010794,-1.6914 -5.010793,-5.07422 -10e-7,-5.45477 2.959958,-10.31756 8.879886,-14.58838 1.945106,-1.39539 4.566784,-2.89651 7.865042,-4.50337 3.932499,-1.90281 6.723317,-2.85423 8.372464,-2.85425 1.141672,2e-5 2.219943,0.61316 3.234816,1.8394 1.014813,1.2263 1.522234,2.43142 1.522266,3.61539 -3.2e-5,2.3257 -0.930304,5.39137 -2.790821,9.19702 -1.81829,3.76339 -2.72742,5.94107 -2.727394,6.53306 -2.6e-5,2.02969 0.317112,3.4251 0.951416,4.18623 0.507395,0.63428 2.452511,1.24741 5.835354,1.83941 m -2.283399,-21.43859 c -3.1e-5,-1.52224 -1.31087,-2.28337 -3.932521,-2.2834 -3.847974,3e-5 -7.040501,0.86687 -9.577591,2.60054 -2.367985,1.60686 -4.820522,3.7634 -7.35762,6.46963 -3.21368,3.42511 -4.820515,6.13136 -4.82051,8.11876 -5e-6,1.18399 0.507417,2.09312 1.522266,2.72739 0.887982,0.54971 1.966252,0.82456 3.234816,0.82456 3.678797,0 6.829039,-1.28969 9.450736,-3.86909 0.634258,-0.63427 2.431376,-3.06567 5.391359,-7.29419 1.818236,-2.62167 3.573069,-3.93251 5.264504,-3.93252 0.549677,-1.18397 0.82453,-2.30453 0.824561,-3.36168 m 2.093116,22.70714 0,-0.19028 0.126855,0 0,-0.19029 -0.126855,0 0,-0.38056 0.253711,0 0,0.12685 -0.126856,0 0,0.12686 0.126856,0 0,0.50742 -0.253711,0"
           style=""
           id="path4143" /><path
           d="m 122.87353,-518.04949 -9.95816,-3.23482 c -2.45255,2e-5 -4.6091,1.67028 -6.46963,5.01079 -0.67657,1.14172 -1.81827,3.84796 -3.4251,8.11876 -1.56456,4.22852 -4.101664,6.34277 -7.611329,6.34277 0.211425,-1.73369 1.310838,-4.1228 3.298243,-7.16733 2.156536,-3.29824 3.446236,-5.72963 3.869096,-7.2942 0.33827,-1.31082 0.57084,-3.46736 0.6977,-6.46963 0.0423,-1.26853 0.33828,-2.57937 0.88799,-3.93252 0.76112,-1.90281 1.62797,-2.89651 2.60054,-2.9811 l 1.20513,0.0634 0.63427,4.31308 c 0.29599,1.09944 1.28969,1.64914 2.98111,1.64912 l 2.15654,0 c 0.38055,-0.0423 0.67655,-0.0634 0.88799,-0.0634 4.86277,-0.0845 7.6113,1.79714 8.24561,5.64507"
           style=""
           id="path4145" /><path
           d="m 152.8372,-541.64462 c -3e-5,1.05717 -0.35946,2.24115 -1.07828,3.55196 -0.29602,0.54974 -1.58572,2.34686 -3.86909,5.39136 1.0571,0.71887 2.13538,1.41658 3.23482,2.09311 1.18395,0.97259 1.71252,2.072 1.58569,3.29824 l -0.0634,0.69771 c -0.0423,2e-5 -1.01487,-0.29597 -2.91767,-0.88799 -1.2263,-0.38054 -2.17772,-0.57082 -2.85425,-0.57085 -2.32571,3e-5 -5.68738,2.45256 -10.08502,7.35762 -4.35538,4.86281 -6.53306,8.49933 -6.53306,10.90958 0,2.07197 1.86054,3.5731 5.58165,4.50337 2.36795,0.59199 5.03191,0.88799 7.99189,0.88799 1.14168,0 2.30452,-0.0846 3.48853,-0.25372 -0.0423,0.21143 0.14797,0.592 0.57085,1.1417 -2.66399,1.01485 -5.30681,1.52227 -7.92847,1.52227 -9.51417,0 -14.27125,-2.32568 -14.27124,-6.97705 -10e-6,-2.74853 2.3891,-6.78676 7.16733,-12.1147 l 5.45479,-6.08907 -2.21997,-0.12686 c -0.93029,-0.0423 -2.1777,0.21145 -3.74224,0.76114 -3.08682,1.09943 -4.90508,1.64914 -5.45479,1.64912 -0.71885,2e-5 -1.39541,-0.2114 -2.02968,-0.63428 -0.592,-0.46511 -0.88799,-1.03596 -0.88799,-1.71255 0,-1.64909 1.88168,-2.47365 5.64507,-2.47368 0.38056,3e-5 0.93026,0.0212 1.64912,0.0634 0.71884,0.0423 1.26854,0.0635 1.64912,0.0634 3.21366,2e-5 5.85648,-0.54968 7.92847,-1.64913 2.11424,-1.09938 3.97478,-3.00221 5.58164,-5.70849 0.54969,-0.93024 1.83938,-3.55192 3.8691,-7.86505 0.54968,5e-5 1.09938,0.38061 1.64912,1.1417 0.59196,0.76118 0.88796,1.43774 0.88799,2.02969"
           style=""
           id="path4147" /><path
           d="m 186.24479,-528.64193 c -3e-5,1.60686 -1.26858,3.93254 -3.80566,6.97706 -1.35315,1.56456 -3.72112,4.39767 -7.10391,8.49931 -2.53713,3.12911 -3.80568,5.70851 -3.80566,7.73819 -2e-5,0.54971 0.0846,1.01485 0.25371,1.39541 -3.21369,0.88799 -6.23708,3.46738 -9.07017,7.73819 l -9.51417,14.46153 c -0.59199,-0.12688 -1.71255,-0.71887 -3.36167,-1.77598 0.67657,-1.39543 2.19883,-3.59426 4.5668,-6.59649 1.22627,-1.4377 3.02339,-3.61539 5.39136,-6.53306 1.98739,-2.49483 2.98109,-4.14395 2.9811,-4.94736 -1e-5,-1.22627 -0.97256,-1.83941 -2.91767,-1.83941 l -1.26856,0 c -1.94512,-0.21142 -3.36167,-1.86054 -4.24966,-4.94736 -0.59199,-2.07197 -0.88799,-4.43993 -0.88799,-7.10391 0,-2.95995 0.31714,-6.42733 0.95142,-10.40215 2.57939,2e-5 3.86909,2.07199 3.86909,6.21592 0,0.76115 -0.0846,1.8817 -0.25371,3.36167 -0.12686,1.47999 -0.19029,2.60055 -0.19028,3.36167 -1e-5,5.1588 2.24111,7.73819 6.72334,7.73819 1.3954,0 3.42509,-1.90283 6.08907,-5.7085 0.76111,-1.09941 3.17136,-4.92621 7.23076,-11.48043 2.87536,-4.65134 5.03191,-7.63244 6.46963,-8.94331 0.29597,0.21145 0.67653,0.65545 1.1417,1.33198 0.50739,0.67659 0.7611,1.16287 0.76113,1.45884"
           style=""
           id="path4149" /></g><g
         transform="scale(1,-1)"
         style="font-size:63.42775726px;font-style:normal;font-variant:normal;font-weight:bold;font-stretch:normal;line-height:125%;letter-spacing:0px;word-spacing:0px;fill:#000080;fill-opacity:1;stroke:none;font-family:Impact;-inkscape-font-specification:Impact Bold"
         id="text3324"><path
           d="m 125.43047,-476.56638 -0.2168,3.90229 c 0.9704,-1.54849 2.12663,-2.70472 3.46871,-3.4687 1.34204,-0.78455 2.86992,-1.17684 4.58365,-1.17688 3.34479,4e-5 5.97729,1.54857 7.8975,4.64558 1.05296,-1.54849 2.24017,-2.70472 3.56161,-3.4687 1.32138,-0.78455 2.78732,-1.17684 4.39783,-1.17688 2.1266,4e-5 3.8816,0.51621 5.26499,1.54853 1.40396,1.03239 2.30211,2.30218 2.69445,3.80938 0.39224,1.48662 0.58839,3.91265 0.58844,7.27808 l 0,29.20527 -12.14047,0 0,-26.78956 c -4e-5,-3.50997 -0.12392,-5.67791 -0.37165,-6.50382 -0.22715,-0.8465 -0.7743,-1.26976 -1.64144,-1.2698 -0.88786,4e-5 -1.46597,0.41298 -1.73435,1.23883 -0.2478,0.82591 -0.37168,3.00417 -0.37165,6.53479 l 0,26.78956 -12.14047,0 0,-26.10821 c -2e-5,-4.02614 -0.10325,-6.44185 -0.30971,-7.24711 -0.18584,-0.8052 -0.72266,-1.20782 -1.61047,-1.20786 -0.55748,4e-5 -1.03236,0.21683 -1.42464,0.65039 -0.39231,0.41297 -0.60911,0.92915 -0.65038,1.54852 -0.0413,0.5988 -0.062,1.88924 -0.062,3.87133 l 0,28.49294 -12.14047,0 0,-41.09797 12.35727,0"
           style=""
           id="path4152" /><path
           d="m 190.31384,-462.13409 0,10.06544 c -3e-5,3.69584 -0.18585,6.41092 -0.55747,8.14527 -0.37167,1.71371 -1.16658,3.32418 -2.38473,4.83141 -1.2182,1.48659 -2.78738,2.5912 -4.70753,3.31385 -1.89955,0.702 -4.08814,1.053 -6.56576,1.053 -2.76672,0 -5.11016,-0.29938 -7.03033,-0.89815 -1.92018,-0.61941 -3.41709,-1.5382 -4.49073,-2.75638 -1.05301,-1.23882 -1.80662,-2.72541 -2.26085,-4.45976 -0.45424,-1.75499 -0.68136,-4.37717 -0.68136,-7.86653 l 0,-10.53 c 0,-3.81968 0.41294,-6.80317 1.23883,-8.9505 0.82587,-2.14726 2.31246,-3.87128 4.45976,-5.17209 2.14728,-1.30072 4.89334,-1.9511 8.23818,-1.95114 2.80798,4e-5 5.21336,0.4233 7.21614,1.26979 2.02339,0.82592 3.58224,1.90989 4.67656,3.25191 1.09427,1.3421 1.83756,2.72545 2.22988,4.15006 0.41291,1.42468 0.61938,3.59262 0.61941,6.50382 m -12.51211,-3.09706 c -2e-5,-2.10596 -0.11358,-3.42737 -0.34068,-3.96423 -0.22713,-0.55744 -0.71234,-0.83617 -1.45562,-0.83621 -0.74331,4e-5 -1.23883,0.27877 -1.48658,0.83621 -0.24778,0.53686 -0.37167,1.85827 -0.37165,3.96423 l 0,18.55138 c -2e-5,1.94084 0.12387,3.21063 0.37165,3.80939 0.24775,0.57812 0.73295,0.86718 1.45561,0.86717 0.74328,1e-5 1.22849,-0.2684 1.45562,-0.80523 0.24775,-0.53682 0.37163,-1.69305 0.37165,-3.46871 l 0,-18.954"
           style=""
           id="path4154" /><path
           d="m 222.92587,-485.60979 0,50.14138 -12.51211,0 0,-2.97318 c -1.19755,1.23882 -2.45702,2.16794 -3.77841,2.78735 -1.32143,0.61941 -2.70478,0.92912 -4.15006,0.92912 -1.94083,0 -3.62357,-0.50585 -5.04821,-1.51756 -1.42465,-1.03235 -2.34344,-2.21955 -2.75638,-3.56162 -0.3923,-1.34205 -0.58844,-3.53063 -0.58844,-6.56576 l 0,-19.23273 c 0,-3.15897 0.19614,-5.39917 0.58844,-6.72062 0.41294,-1.32137 1.34206,-2.47761 2.78735,-3.46871 1.44529,-1.01166 3.16932,-1.51751 5.17209,-1.51755 1.54852,4e-5 2.96284,0.27877 4.24297,0.8362 1.30075,0.55751 2.47763,1.39372 3.53065,2.50862 l 0,-11.64494 12.51211,0 m -12.51211,19.38759 c -2e-5,-1.50721 -0.13423,-2.51891 -0.40262,-3.03512 -0.24778,-0.51614 -0.75363,-0.77423 -1.51756,-0.77427 -0.74331,4e-5 -1.24916,0.23748 -1.51756,0.71233 -0.24778,0.45427 -0.37166,1.48662 -0.37164,3.09706 l 0,20.13088 c -2e-5,1.67242 0.12386,2.77703 0.37164,3.31385 0.24775,0.51618 0.72263,0.77427 1.42465,0.77426 0.80522,1e-5 1.34204,-0.28905 1.61047,-0.86717 0.26839,-0.59876 0.4026,-2.04405 0.40262,-4.33589 l 0,-19.01593"
           style=""
           id="path4156" /><path
           d="m 255.75469,-455.28959 -16.19762,0 0,8.88856 c -1e-5,1.85824 0.13419,3.05577 0.40262,3.59259 0.2684,0.53683 0.78457,0.80524 1.54853,0.80523 0.94975,1e-5 1.57948,-0.35099 1.88921,-1.053 0.33033,-0.72264 0.49551,-2.10599 0.49552,-4.15006 l 0,-5.41985 11.86174,0 0,3.03512 c -3e-5,2.5396 -0.16521,4.49074 -0.49553,5.85344 -0.30974,1.36271 -1.05303,2.81833 -2.22988,4.36685 -1.17691,1.54853 -2.67382,2.71509 -4.49074,3.49968 -1.79631,0.76394 -4.05716,1.14591 -6.78256,1.14591 -2.64283,0 -4.97595,-0.38197 -6.99935,-1.14591 -2.02342,-0.76394 -3.60291,-1.80662 -4.7385,-3.12803 -1.11494,-1.34205 -1.88921,-2.80799 -2.32279,-4.39782 -0.43359,-1.61046 -0.65038,-3.94358 -0.65038,-6.99936 l 0,-11.98561 c 0,-3.59256 0.4852,-6.4212 1.45561,-8.48594 0.97041,-2.08532 2.56023,-3.67514 4.76947,-4.76947 2.20923,-1.1149 4.74881,-1.67237 7.61877,-1.67241 3.50998,4e-5 6.40056,0.67107 8.67176,2.01308 2.2918,1.32145 3.89194,3.08678 4.80044,5.29597 0.92909,2.18862 1.39365,5.27536 1.39368,9.26021 l 0,5.45082 m -12.54309,-6.68964 0,-3.00415 c -2e-5,-2.12662 -0.11357,-3.49964 -0.34067,-4.11909 -0.22714,-0.61938 -0.6917,-0.92908 -1.39368,-0.92912 -0.86719,4e-5 -1.40402,0.26845 -1.61047,0.80524 -0.20649,0.51621 -0.30972,1.93053 -0.30971,4.24297 l 0,3.00415 3.65453,0"
           style=""
           id="path4158" /></g></g></g></svg>